<svg id="color" enable-background="new 0 0 24 24" height="512" viewBox="0 0 24 24" width="512" xmlns="http://www.w3.org/2000/svg"><path d="m10.823 20.001-.257-.046c-.331-.12-.533-.454-.486-.803l.814-6.151h-3.144c-.282 0-.541-.159-.669-.411s-.103-.555.064-.782l5.5-7.5c.205-.281.577-.385.896-.248.32.135.506.472.449.814l-.854 5.127h3.114c.274 0 .526.149.658.39.131.24.121.533-.026.764l-5.427 8.5c-.141.22-.382.346-.632.346z" fill="#ffc107"/><path d="m16.25 10.001h-3.114l-2.241 3-.814 6.151c-.047.349.155.683.486.803l.257.046c.25 0 .491-.126.632-.347l5.427-8.5c.147-.23.157-.523.026-.764-.133-.24-.385-.389-.659-.389z" fill="#dea806"/><path d="m2.706 12.75h-1.956c-.414 0-.75-.336-.75-.75s.336-.75.75-.75h1.956c.414 0 .75.336.75.75s-.336.75-.75.75z" fill="#ffd54f"/><path d="m3.456 12h-3.456c0 .414.336.75.75.75h1.956c.414 0 .75-.336.75-.75z" fill="#deb945"/><path d="m23.25 12.75h-1.956c-.414 0-.75-.336-.75-.75s.336-.75.75-.75h1.956c.414 0 .75.336.75.75s-.336.75-.75.75z" fill="#ffd54f"/><path d="m24 12h-3.456c0 .414.336.75.75.75h1.956c.414 0 .75-.336.75-.75z" fill="#deb945"/><path d="m12.75 21.294v1.956c0 .414-.336.75-.75.75s-.75-.336-.75-.75v-1.956c0-.414.336-.75.75-.75s.75.336.75.75z" fill="#ffd54f"/><path d="m12 20.544v3.456c.414 0 .75-.336.75-.75v-1.956c0-.414-.336-.75-.75-.75z" fill="#deb945"/><path d="m12.75.75v1.956c0 .414-.336.75-.75.75s-.75-.336-.75-.75v-1.956c0-.414.336-.75.75-.75s.75.336.75.75z" fill="#ffd54f"/><path d="m12 0v3.456c.414 0 .75-.336.75-.75v-1.956c0-.414-.336-.75-.75-.75z" fill="#deb945"/><path d="m4.898 5.958-1.383-1.383c-.293-.293-.293-.768 0-1.061s.768-.293 1.061 0l1.383 1.383c.293.293.293.768 0 1.061s-.768.293-1.061 0z" fill="#ffd54f"/><path d="m5.959 5.959-2.444-2.444c-.293.293-.293.768 0 1.061l1.383 1.383c.293.292.768.292 1.061 0z" fill="#deb945"/><path d="m19.425 20.485-1.383-1.383c-.293-.293-.293-.768 0-1.061s.768-.293 1.061 0l1.383 1.383c.293.293.293.768 0 1.061-.294.293-.769.293-1.061 0z" fill="#ffd54f"/><path d="m20.485 20.485-2.444-2.444c-.293.293-.293.768 0 1.061l1.383 1.383c.293.293.768.293 1.061 0z" fill="#deb945"/><path d="m5.959 19.102-1.383 1.383c-.293.293-.768.293-1.061 0s-.293-.768 0-1.061l1.383-1.383c.293-.293.768-.293 1.061 0 .292.293.292.768 0 1.061z" fill="#ffd54f"/><path d="m5.959 18.041-2.444 2.444c.293.293.768.293 1.061 0l1.383-1.383c.292-.293.292-.768 0-1.061z" fill="#deb945"/><path d="m20.485 4.575-1.383 1.383c-.293.293-.768.293-1.061 0s-.293-.768 0-1.061l1.383-1.383c.293-.293.768-.293 1.061 0 .293.294.293.769 0 1.061z" fill="#ffd54f"/><path d="m20.485 3.515-2.444 2.444c.293.293.768.293 1.061 0l1.383-1.383c.293-.293.293-.768 0-1.061z" fill="#deb945"/></svg>